<svg width="20" height="21" viewBox="0 0 20 21" fill="none" xmlns="http://www.w3.org/2000/svg">
<path fill-rule="evenodd" clip-rule="evenodd" d="M18 0H2C0.89543 0 0 0.940202 0 2.1V18.9C0 20.0598 0.89543 21 2 21L10 21V13.0941H7V10.1294H10V8.53737C10 5.52325 11.4897 4.20001 13.925 4.20001C15.0684 4.20001 15.6836 4.2855 15.9825 4.32703L16 4.32946V7.16471H14.339C13.3053 7.16471 13 7.72603 13 8.8625V10.1294H15.9741L15.5629 13.0941H13V21L18 21C19.1046 21 20 20.0598 20 18.9V2.1C20 0.940202 19.1046 0 18 0Z" fill="#262626"/>
</svg>
