<svg width="20" height="21" viewBox="0 0 20 21" fill="none" xmlns="http://www.w3.org/2000/svg">
<path fill-rule="evenodd" clip-rule="evenodd" d="M6 0.0558472H14C17.3137 0.0558472 20 2.86897 20 6.33913V14.7168C20 18.187 17.3137 21.0001 14 21.0001H6C2.68629 21.0001 0 18.187 0 14.7168V6.33913C0 2.86897 2.68629 0.0558472 6 0.0558472ZM16 3.19736C16.5 3.19736 17 3.72097 17 4.24458C17 4.76818 16.5 5.29179 16 5.29179C15.5 5.29179 15 4.76818 15 4.24458C15 3.72097 15.5 3.19736 16 3.19736ZM15 10.5278C15 7.64014 12.7575 5.29177 10 5.29177C7.2425 5.29177 5 7.64014 5 10.5278C5 13.4155 7.2425 15.7639 10 15.7639C12.7575 15.7639 15 13.4155 15 10.5278ZM10 7.38617C8.34315 7.38617 7 8.79273 7 10.5278C7 12.2629 8.34315 13.6694 10 13.6694C11.6569 13.6694 13 12.2629 13 10.5278C13 8.79273 11.6569 7.38617 10 7.38617Z" fill="#262626"/>
</svg>
