<svg width="20" height="21" viewBox="0 0 20 21" fill="none" xmlns="http://www.w3.org/2000/svg">
<path fill-rule="evenodd" clip-rule="evenodd" d="M18 0.0558472H2C0.89543 0.0558472 0 0.993554 0 2.15027V18.9057C0 20.0624 0.89543 21.0001 2 21.0001H18C19.1046 21.0001 20 20.0624 20 18.9057V2.15027C20 0.993554 19.1046 0.0558472 18 0.0558472ZM4 4.83525C4 5.73946 4.70032 6.47408 5.56637 6.47408C6.4297 6.47408 7.13184 5.73946 7.13184 4.83525C7.13184 3.93198 6.4297 3.19736 5.56637 3.19736C4.70123 3.19736 4 3.93103 4 4.83525ZM4.25049 16.8111H6.937V7.76703H4.25049V16.8111ZM17.0001 16.8111H14.3154V12.4129C14.3154 11.3639 14.2972 10.0147 12.9193 10.0147C11.5214 10.0147 11.3065 11.1571 11.3065 12.3367V16.8111H8.62183V7.76703H11.1991V9.00282H11.2355C11.5943 8.29203 12.4704 7.54216 13.7772 7.54216C16.4974 7.54216 17.0001 9.41539 17.0001 11.8508V16.8111Z" fill="#262626"/>
</svg>
