<svg width="14" height="15" viewBox="0 0 14 15" fill="none" xmlns="http://www.w3.org/2000/svg">
<path d="M5.82981 0.5C2.617 0.5 0 3.117 0 6.32981C0 9.54262 2.617 12.1596 5.82981 12.1596C7.22693 12.1596 8.51 11.6635 9.51558 10.8399L12.9964 14.3208C13.0501 14.3767 13.1144 14.4214 13.1856 14.4522C13.2568 14.4829 13.3335 14.4992 13.411 14.5C13.4886 14.5008 13.5655 14.4861 13.6373 14.4567C13.7091 14.4274 13.7744 14.3841 13.8292 14.3292C13.8841 14.2744 13.9274 14.2091 13.9567 14.1373C13.9861 14.0655 14.0008 13.9886 14 13.911C13.9992 13.8335 13.9829 13.7568 13.9522 13.6856C13.9214 13.6144 13.8767 13.5501 13.8208 13.4964L10.3399 10.0156C11.1635 9.01 11.6596 7.72693 11.6596 6.32981C11.6596 3.117 9.04262 0.5 5.82981 0.5ZM5.82981 1.66596C8.41249 1.66596 10.4937 3.74713 10.4937 6.32981C10.4937 8.91249 8.41249 10.9937 5.82981 10.9937C3.24713 10.9937 1.16596 8.91249 1.16596 6.32981C1.16596 3.74713 3.24713 1.66596 5.82981 1.66596Z" fill="#969696"/>
</svg>
