<svg width="20" height="21" viewBox="0 0 20 21" fill="none" xmlns="http://www.w3.org/2000/svg">
<path fill-rule="evenodd" clip-rule="evenodd" d="M18 0.0558472H2C0.89543 0.0558472 0 0.993554 0 2.15027V18.9057C0 20.0624 0.89543 21.0001 2 21.0001H18C19.1046 21.0001 20 20.0624 20 18.9057V2.15027C20 0.993554 19.1046 0.0558472 18 0.0558472ZM15.3502 6.58962C15.9312 6.51929 16.4847 6.36336 17 6.13166C16.615 6.71447 16.1277 7.2264 15.5661 7.63693C15.5715 7.76178 15.5742 7.88717 15.5742 8.01311C15.5742 11.8562 12.686 16.2875 7.40283 16.2875C5.78051 16.2875 4.27126 15.8061 3 14.9812C3.22507 15.0085 3.45391 15.0221 3.68544 15.0221C5.03154 15.0221 6.26995 14.557 7.25261 13.7769C5.99588 13.7534 4.93516 12.9122 4.56956 11.7569C4.74455 11.7902 4.92493 11.8087 5.10961 11.8087C5.37183 11.8087 5.62598 11.7733 5.86666 11.7068C4.55232 11.4402 3.56267 10.2648 3.56267 8.85543V8.81891C3.94981 9.03644 4.39295 9.16728 4.86354 9.18255C4.09303 8.66135 3.58636 7.77105 3.58636 6.76244C3.58636 6.2287 3.72797 5.72931 3.97458 5.2997C5.39175 7.05957 7.50783 8.21756 9.89474 8.33859C9.84628 8.12651 9.82043 7.90408 9.82043 7.67619C9.82043 6.0706 11.1062 4.76814 12.6925 4.76814C13.5184 4.76814 14.2647 5.12142 14.7886 5.68678C15.4434 5.55594 16.0583 5.31387 16.6129 4.98076C16.3986 5.66007 15.9436 6.22979 15.3502 6.58962Z" fill="#262626"/>
</svg>
